<?xml version="1.0" encoding="UTF-8" standalone="no"?>
<!-- Created with Inkscape (http://www.inkscape.org/) -->

<svg
   xmlns:dc="http://purl.org/dc/elements/1.1/"
   xmlns:cc="http://creativecommons.org/ns#"
   xmlns:rdf="http://www.w3.org/1999/02/22-rdf-syntax-ns#"
   xmlns:svg="http://www.w3.org/2000/svg"
   xmlns="http://www.w3.org/2000/svg"
   xmlns:sodipodi="http://sodipodi.sourceforge.net/DTD/sodipodi-0.dtd"
   xmlns:inkscape="http://www.inkscape.org/namespaces/inkscape"
   id="svg2"
   version="1.1"
   inkscape:version="0.48.5 r10040"
   width="295"
   height="295"
   sodipodi:docname="FISHY_A.png"
   inkscape:export-filename="/home/paolot/Downloads/SpriteKit/tryFish/img/fishyTorquoise.png"
   inkscape:export-xdpi="50.18"
   inkscape:export-ydpi="50.18">
  <metadata
     id="metadata8">
    <rdf:RDF>
      <cc:Work
         rdf:about="">
        <dc:format>image/svg+xml</dc:format>
        <dc:type
           rdf:resource="http://purl.org/dc/dcmitype/StillImage" />
        <dc:title></dc:title>
      </cc:Work>
    </rdf:RDF>
  </metadata>
  <defs
     id="defs6" />
  <sodipodi:namedview
     pagecolor="#ffffff"
     bordercolor="#666666"
     borderopacity="1"
     objecttolerance="10"
     gridtolerance="10"
     guidetolerance="10"
     inkscape:pageopacity="0"
     inkscape:pageshadow="2"
     inkscape:window-width="1600"
     inkscape:window-height="880"
     id="namedview4"
     showgrid="false"
     inkscape:zoom="1.6"
     inkscape:cx="199.56561"
     inkscape:cy="147.5"
     inkscape:window-x="1277"
     inkscape:window-y="-3"
     inkscape:window-maximized="1"
     inkscape:current-layer="svg2" />
  <path
     style="fill:#ff0000"
     d="m 137.8463,254.42998 c -1.1,-0.45022 -2.82337,-1.73426 -3.8297,-2.85342 -2.40676,-2.67659 -1.13481,-5.09753 4.83686,-9.20615 6.38795,-4.39502 17.85752,-15.59599 17.14707,-16.74552 -0.32979,-0.53362 -2.64961,-1.2512 -5.15514,-1.59462 -11.09436,-1.52065 -37.44286,-13.63513 -46.47982,-21.37042 -4.874931,-4.17277 -9.290671,-10.43597 -10.952266,-15.53451 -1.4064,-5.0434 -3.17009,-3.27585 -5.41207,-0.36425 -3.77138,4.94453 -15.83455,12.5365 -26.15494,16.46063 -7.08006,2.69207 -10.96122,3.52855 -18.19361,3.92116 l -9.19362,0.49908 -3.05639,-3.05639 c -4.64265,-4.64265 -4.31362,-10.02533 1.10621,-18.09677 4.94364,-7.36225 13.66381,-15.67418 21.28081,-20.28454 3.02494,-1.8309 5.51265,-3.78493 5.52825,-4.34227 0.0156,-0.55734 -2.18425,-1.53894 -4.88854,-2.18132 -7.99007,-1.89799 -19.53008,-7.7523 -23.90485,-12.12707 -7.41601,-7.41601 -7.78686,-16.26081 -0.83259,-19.857 4.25783,-2.20181 13.94544,-2.7902 22.41599,-1.36145 8.29645,1.39937 17.33018,5.55985 29.16827,13.43341 4.63646,3.08373 8.7308,5.60678 9.09854,5.60678 0.36773,0 1.7029,-3.9375 2.96703,-8.75 3.278315,-12.48034 11.333346,-30.98063 17.005866,-39.058003 7.43603,-10.588528 19.62521,-20.223578 31.9083,-25.222218 4.01366,-1.63338 7.87084,-2.96977 8.57151,-2.96977 0.70067,0 1.78563,-0.61655 2.41103,-1.3701 2.11747,-2.551398 -11.95682,-19.026828 -20.61084,-24.127138 -5.34461,-3.14988 -5.36362,-5.37462 -0.0693,-8.11242 5.58793,-2.88963 15.6594,-3.647671 25.58446,-1.92564 27.71567,0.421183 43.30218,30.070399 60.11218,34.07552 4.07479,0.964148 10.47321,3.286108 14.21871,5.159908 17.9153,8.96266 31.36783,35.207001 32.44675,63.299861 l 0.40326,10.5 5.72926,0.5 c 4.91215,0.42869 5.9422,0.88099 7.22235,3.17137 1.28094,2.29182 1.29755,3.03674 0.11687,5.24286 -3.05513,5.70858 -16.23211,9.36647 -23.62114,6.55716 -34.84502,-13.1668 -22.05237,29.55937 -0.17761,23.36257 6.47885,-1.92401 11.25863,-1.18163 14.90895,2.31559 3.13741,3.00583 3.67137,6.41883 1.31072,8.37799 -2.50914,2.0824 -10.70437,2.4181 -14.25156,0.58378 -4.10645,-2.12353 -5.94647,-2.03358 -6.69579,0.32734 -0.33842,1.06626 -3.06291,4.42568 -6.05442,7.46537 -5.6479,5.73886 -16.23667,11.58042 -27.46505,15.15179 -6.71785,2.13672 -7.64571,2.82939 -10.01731,7.47812 -4.86492,9.53603 -19.50511,19.77127 -35.74465,24.98977 -8.00231,2.57151 -10.72235,2.96767 -20,2.9129 -5.90592,-0.0349 -11.63804,-0.43175 -12.73804,-0.88197 z"
     id="path2987-2"
     inkscape:connector-curvature="0"
     sodipodi:nodetypes="ssssssccsscsssssssssssssssssccsscsssccssssssssss"
     inkscape:export-xdpi="50.182453"
     inkscape:export-ydpi="50.182453" />
  <path
     style="fill:#000000"
     d="m 137.84629,254.42998 c -1.1,-0.45022 -2.82337,-1.73426 -3.8297,-2.85342 -2.40676,-2.67659 -1.13481,-5.09753 4.83686,-9.20615 6.38795,-4.39502 17.85752,-15.59599 17.14707,-16.74552 -0.32979,-0.53362 -2.6496,-1.2512 -5.15513,-1.59462 -11.09436,-1.52065 -37.44286,-13.63513 -46.47982,-21.37042 -4.87493,-4.17277 -9.29067,-10.43597 -10.95226,-15.53451 -0.67216,-2.0625 -1.58381,-3.75 -2.02587,-3.75 -0.44207,0 -1.96586,1.52359 -3.3862,3.38575 -3.77138,4.94453 -15.834552,12.5365 -26.154942,16.46063 -7.080069,2.69207 -10.961229,3.52855 -18.193619,3.92116 l -9.193611,0.49908 -3.05639,-3.05639 c -4.64265,-4.64265 -4.31362,-10.02533 1.10621,-18.09677 4.94364,-7.36225 13.663801,-15.67418 21.280801,-20.28454 3.02494,-1.8309 5.51265,-3.78493 5.52825,-4.34227 0.0156,-0.55734 -2.18425,-1.53894 -4.88854,-2.18132 -7.99007,-1.89799 -19.530071,-7.7523 -23.904841,-12.12707 -7.41601,-7.41601 -7.78686,-16.26082 -0.83259,-19.85701 4.25783,-2.20181 13.945431,-2.7902 22.415981,-1.36145 8.29645,1.39937 17.330189,5.55985 29.168281,13.43342 4.63646,3.08373 8.7308,5.60678 9.09854,5.60678 0.36773,0 1.7029,-3.9375 2.96703,-8.75 3.27831,-12.48035 11.33334,-30.98065 17.00586,-39.058015 7.43603,-10.588519 19.62521,-20.223569 31.9083,-25.222209 4.01366,-1.63338 7.87084,-2.96977 8.57151,-2.96977 0.70067,0 1.78563,-0.61655 2.41103,-1.370099 2.11747,-2.5514 -11.95682,-19.02683 -20.61084,-24.12714 -5.34461,-3.14988 -5.36362,-5.37462 -0.0693,-8.11242 5.58793,-2.88963 15.6594,-3.647671 25.58446,-1.92564 19.24179,3.3385 29.75994,8.8405 43.20348,22.59955 9.42061,9.64171 9.56191,9.73761 16.9087,11.47597 4.07479,0.964149 10.47321,3.286109 14.21871,5.159909 17.9153,8.96266 31.36783,35.206984 32.44675,63.299864 l 0.40325,10.5 5.72927,0.5 c 4.91215,0.42869 5.9422,0.88099 7.22235,3.17137 1.28094,2.29182 1.29755,3.03674 0.11687,5.24286 -3.05513,5.70858 -16.23211,9.36647 -23.62114,6.55716 -1.88475,-0.71658 -5.87349,-0.67212 -13.1489,0.14654 l -10.44346,1.17515 0.6363,3.60346 c 0.92944,5.26349 5.26567,13.74935 8.20886,16.06447 4.29086,3.37519 8.74942,4.10136 14.56959,2.37295 6.47885,-1.92401 11.25863,-1.18163 14.90895,2.31559 3.13741,3.00583 3.67137,6.41883 1.31072,8.37799 -2.50914,2.0824 -10.70437,2.4181 -14.25156,0.58378 -4.10645,-2.12353 -5.94647,-2.03358 -6.69579,0.32734 -0.33842,1.06626 -3.06291,4.42568 -6.05442,7.46537 -5.6479,5.73886 -16.23667,11.58042 -27.46505,15.15179 -6.71785,2.13672 -7.64571,2.82939 -10.01731,7.47812 -4.86492,9.53603 -19.50511,19.77127 -35.74465,24.98977 -8.00231,2.57151 -10.72235,2.96767 -20,2.9129 -5.90592,-0.0349 -11.63804,-0.43175 -12.73804,-0.88197 z m 29.5,-5.6877 c 8.57902,-2.16319 21.32798,-8.90006 27.47599,-14.51899 5.59802,-5.11628 8.16097,-8.54433 7.14652,-9.55878 -1.06024,-1.06024 -9.09397,2.91932 -13.73124,6.80186 -5.09483,4.26564 -15.63086,10.90897 -17.30114,10.90897 -0.56514,0 1.55805,-2.61284 4.7182,-5.80631 3.16015,-3.19347 5.43931,-6.11271 5.06482,-6.48721 -0.3745,-0.3745 -2.5138,-0.38781 -4.75399,-0.0296 -3.03709,0.48565 -5.96183,2.26287 -11.49873,6.98721 -8.89051,7.5858 -11.92296,8.33241 -6.17996,1.52154 4.35353,-5.16302 4.92854,-6.91494 2.56703,-7.82114 -1.7333,-0.66513 -20.78357,16.3073 -20.21574,18.01078 0.19609,0.58826 1.44816,1.3933 2.78238,1.78898 3.25068,0.96405 17.10078,-0.0764 23.92586,-1.79731 z m 11.05644,-31.61694 c 1.03237,-1.2375 1.89199,-3.08992 1.91029,-4.1165 0.0304,-1.70811 -0.5395,-1.80755 -6.71673,-1.17181 -3.7125,0.38207 -8.64889,1.15949 -10.96976,1.72759 -4.63195,1.13382 -7.4862,3.4757 -5.14286,4.21966 0.74944,0.23793 2.03762,0.65773 2.86262,0.93288 0.825,0.27516 4.80287,0.53581 8.83971,0.57923 6.44212,0.0693 7.56925,-0.19621 9.21673,-2.17105 z m 12.38333,-1 c 0.73574,-1.7875 2.62528,-9.21115 4.19897,-16.497 1.57369,-7.28584 3.12328,-13.24834 3.44354,-13.25 0.91511,-0.005 -0.15365,10.58426 -2.11925,20.997 -0.98632,5.225 -1.43966,9.86933 -1.00743,10.32073 1.31766,1.37611 21.03707,-4.16549 29.68957,-8.34343 7.72547,-3.73031 18.22962,-12.00629 20.41018,-16.08071 0.83124,-1.55318 0.32432,-2.17186 -3.28625,-4.01081 -9.95659,-5.07113 -18.88208,-13.30922 -22.84232,-21.0831 l -2.90237,-5.69731 -5.1836,-0.30269 c -6.25267,-0.36511 -8.11966,-2.80268 -2.14664,-2.80268 4.76382,0 8.08015,-2.2156 9.92489,-6.63069 2.15836,-5.16568 4.76301,-3.81873 3.67019,1.89797 -0.42626,2.22985 -0.0779,2.74765 2.23974,3.32935 4.11272,1.03223 21.8352,-0.2995 25.64141,-1.92678 1.83128,-0.78294 4.60131,-2.77677 6.15562,-4.43074 2.69658,-2.86949 2.82866,-3.45906 2.88387,-12.87316 0.1269,-21.63676 -9.98963,-46.669775 -22.98132,-56.866505 -6.21288,-4.87628 -13.79149,-7.46893 -31.3015,-10.7083 -12.7465,-2.35812 -15.4364,-2.08678 -14.41356,1.45393 0.56221,1.94622 0.31011,1.84421 -1.84142,-0.74507 -3.58778,-4.317749 -4.35349,-2.42339 -1.92544,4.7635 7.31002,21.637229 10.20974,78.148725 5.63081,109.736495 -1.78307,12.30048 -3.82476,22.41611 -5.31601,26.3384 -2.46513,6.4838 0.76935,9.75014 3.37833,3.4116 z m 25.64576,-72.40662 c -2.42796,-0.89083 -6.29517,-3.5004 -8.59382,-5.79904 -9.64542,-9.64542 -10.01903,-27.30427 -0.80799,-38.191066 5.49462,-6.494259 21.67564,-9.026139 29.81629,-4.66543 4.73945,2.53879 11.00199,8.799266 12.31621,12.312146 4.85249,12.97067 0.002,29.97771 -10.0146,35.11144 -5.66089,2.90143 -16.55557,3.49227 -22.71608,1.23195 z m 18.59937,-3.40999 c 3.81969,-1.44724 7.08632,-4.64126 9.64785,-9.43339 1.66692,-3.11848 2.12184,-5.65284 2.06426,-11.5 -0.0774,-7.86437 -1.48318,-11.95804 -5.28905,-15.4023 -2.03162,-1.8386 -2.29761,-1.84321 -8.55818,-0.14856 -11.76354,3.18424 -26.78344,11.56099 -28.08556,15.66358 -0.87598,2.75997 1.48741,9.37291 4.77531,13.36171 5.89334,7.14963 17.3771,10.51594 25.44537,7.45896 z m -10.90976,-2.49219 c -4.82683,-2.61943 -6.01298,-7.1468 -3.26479,-12.46122 2.17118,-4.19859 4.81373,-5.35816 9.03552,-3.96484 8.02904,2.64982 8.92148,12.62334 1.47415,16.47451 -3.52749,1.82413 -3.79758,1.82233 -7.24488,-0.0485 z m 7.72486,-9.9412 c 0,-1.08494 -0.73088,-2.11336 -1.62417,-2.2854 -1.73313,-0.33377 -3.27881,2.32435 -2.28584,3.93101 1.01898,1.64874 3.91001,0.43199 3.91001,-1.64561 z m -8.5,-25.04459 c 9.14384,-3.250606 10.1173,-4.051096 6.02066,-4.950866 -6.47896,-1.42302 -16.48283,2.453666 -20.9339,8.112276 -3.02716,3.84842 -1.55298,4.73939 3.22569,1.94955 2.30315,-1.3446 7.56255,-3.64453 11.68755,-5.11096 z m -25.53074,-5.707646 c -1.71228,-4.380309 2.41579,-11.424009 8.93394,-15.243899 5.46289,-3.20146 12.79275,-3.36211 19.05679,-0.41766 4.50149,2.11595 7.26144,4.52571 6.29279,5.49435 -0.29272,0.29272 -2.85203,-0.22655 -5.68735,-1.15394 -5.99096,-1.95954 -12.11716,-1.46161 -17.81863,1.44829 -4.20879,2.14807 -6.28237,4.2412 -8.54453,8.625099 -1.31056,2.53977 -1.65313,2.73119 -2.23301,1.24776 z M 151.85152,215.36688 c 0.34279,-0.55465 -0.38672,-1.38207 -1.62114,-1.83871 -1.75768,-0.65021 -0.88581,-0.97226 4.02051,-1.48507 11.75033,-1.22815 16.20761,-6.57559 7.43642,-8.92152 -2.90413,-0.77674 -4.83243,-1.90939 -5.11949,-3.0071 -0.25328,-0.96856 -1.51839,-2.02653 -2.81134,-2.35104 -1.66172,-0.41706 -2.28625,-1.21998 -2.13051,-2.73906 0.19145,-1.86747 -0.35876,-2.19042 -4.19947,-2.46483 -6.03872,-0.43147 -8.45013,0.32368 -12.56187,3.93383 -4.61948,4.05596 -4.79217,8.36156 -0.53006,13.21583 3.89069,4.43126 15.8814,8.30405 17.51695,5.65767 z m -22.50523,-6.43252 c 0,-0.79254 -0.45,-1.7191 -1,-2.05902 -0.54999,-0.33992 -1,-2.78899 -1,-5.44239 0,-4.1577 -0.31091,-4.90767 -2.25,-5.42732 -3.96139,-1.06162 -7.56165,-0.67578 -9.22619,0.98876 -2.38129,2.38129 -2.96665,0.975 -1.12815,-2.71036 1.99134,-3.99172 2.01083,-4.90869 0.10434,-4.90869 -0.98767,0 -1.5,-0.98811 -1.5,-2.89301 0,-3.73899 -1.95726,-4.41933 -5.86943,-2.0402 -5.03631,3.06277 -4.28476,6.00169 3.46952,13.56745 5.72407,5.58491 15.35546,12.32767 17.64991,12.35638 0.4125,0.005 0.75,-0.63906 0.75,-1.4316 z m 53.64991,-3.0891 c 0.32294,-0.84154 0.6546,-2.75404 0.73704,-4.25 0.0824,-1.49595 0.43299,-3.16992 0.77901,-3.71992 0.34603,-0.55 0.55386,-3.16841 0.46188,-5.81868 -0.0994,-2.86524 0.34747,-5.24586 1.10246,-5.87244 0.69834,-0.57958 1.26971,-1.89867 1.26971,-2.93132 0,-2.37549 -2.65461,-2.43032 -12.30259,-0.2541 -11.42986,2.57814 -19.12874,7.4212 -18.50484,11.64065 0.37138,2.51177 7.71728,7.20744 16.22116,10.36896 7.26523,2.70103 9.45222,2.87982 10.23617,0.83685 z M 53.405909,200.24623 c 15.101449,-3.80938 28.107941,-11.17617 33.519681,-18.98531 4.77388,-6.8887 1.19435,-6.4475 -9.205952,1.13471 -3.71739,2.71012 -7.00964,4.66503 -7.31612,4.34424 -0.30647,-0.32079 2.35814,-3.23404 5.92136,-6.47389 3.56322,-3.23985 6.122392,-5.89064 5.687052,-5.89064 -2.341512,0 -12.459832,6.0092 -18.747752,11.13415 -3.958309,3.22622 -7.370699,5.86585 -7.583079,5.86585 -0.21239,0 0.31079,-1.34775 1.16262,-2.995 2.19461,-4.24392 10.454259,-10.45843 20.818299,-15.66356 4.891042,-2.45643 8.687032,-4.67202 8.435522,-4.92354 -0.86486,-0.86485 -14.256642,2.73816 -18.978582,5.10613 -2.60004,1.30387 -7.472219,4.23468 -10.827069,6.51292 -3.35485,2.27823 -6.31144,3.93054 -6.5702,3.67178 -1.01226,-1.01226 10.50721,-9.95366 17.370319,-13.48283 7.82258,-4.02254 9.15566,-5.53903 4.00429,-4.55521 -12.500349,2.38735 -27.088489,12.14395 -33.88836,22.66467 -4.23962,6.55952 -4.7731,9.56065 -2.11164,11.87916 3.84373,3.34844 7.165421,3.46752 18.309611,0.65637 z m 81.898181,-10.02766 c 2.13053,-2.88172 2.19049,-3.26163 0.68805,-4.36024 -0.90522,-0.66191 -1.64584,-1.71255 -1.64584,-2.33476 0,-0.6222 -0.9,-1.69334 -2,-2.3803 -1.1,-0.68696 -2,-2.01422 -2,-2.94946 0,-0.93524 -0.48175,-1.99817 -1.07056,-2.36208 -0.65021,-0.40185 -0.81884,-2.15161 -0.42944,-4.45639 0.84065,-4.97579 -0.35622,-5.54764 -6.27868,-2.99986 -5.48779,2.36078 -8.22132,6.09037 -8.22132,11.21706 0,3.86876 2.67337,6.84451 10,11.13108 5.88725,3.44444 8.11366,3.34182 10.95779,-0.50505 z m 22.04221,-4.34323 c 1.29175,-1.375 3.18464,-2.5 4.20643,-2.5 2.45624,0 8.77981,-2.67757 10.93953,-4.63209 2.37859,-2.1526 1.33935,-4.05541 -2.98439,-5.46428 -3.82168,-1.24528 -9.42554,-6.9329 -12.10605,-12.28698 -1.27881,-2.55432 -2.07584,-3.06162 -4.41747,-2.81163 -4.05252,0.43264 -12.85834,3.86461 -16.79527,6.54578 -2.97572,2.02655 -3.33165,2.75859 -3.24142,6.66659 0.0901,3.90286 0.62095,4.86048 4.78326,8.62885 4.03491,3.65305 12.77894,8.13637 16.19107,8.30165 0.59162,0.0287 2.13256,-1.07289 3.42431,-2.44789 z m -52.06802,-4.59401 2.13392,-4.09401 -2.53295,-4.53194 c -1.39312,-2.49257 -2.53295,-5.34871 -2.53295,-6.34698 0,-2.56439 -1.53389,-3.19961 -3.11778,-1.29114 -2.73532,3.29585 -0.56096,20.35808 2.59436,20.35808 0.72682,0 2.28175,-1.8423 3.4554,-4.09401 z m 8.02417,-7.41124 c 0.84487,-3.09886 4.12934,-7.49475 5.59984,-7.49475 2.05004,0 2.91172,-2.17644 1.34679,-3.4017 -0.77153,-0.60407 -2.11722,-3.1233 -2.99043,-5.5983 -2.07844,-5.89105 -4.54793,-6.31802 -8.76468,-1.5154 -2.55002,2.9043 -3.14767,4.45443 -3.14767,8.16404 0,8.14942 6.29484,15.93958 7.95615,9.84611 z m 74.66412,-2.08149 c 0.0661,-2.15229 0.41444,-9.93841 0.77399,-17.30247 l 0.65373,-13.38922 -4.27399,0.6018 c -11.81762,1.66398 -20.16493,5.94326 -23.04671,11.81498 -1.42263,2.89865 -1.55863,4.17971 -0.68867,6.48681 1.18255,3.13606 6.2837,8.88128 9.46138,10.65597 2.9668,1.65691 14.84508,5.59031 16,5.29826 0.55,-0.13907 1.05412,-2.01383 1.12027,-4.16613 z m -53.49271,-10.06816 c 0.75484,-0.9102 2.83494,-2.26624 4.62244,-3.01342 3.37916,-1.41251 4.37296,-3.33168 1.72525,-3.33168 -0.83861,0 -1.91197,-1.0125 -2.38524,-2.25 -0.47327,-1.2375 -1.81213,-3.10724 -2.97525,-4.15499 -1.16312,-1.04774 -2.11476,-2.70868 -2.11476,-3.69098 0,-0.9823 -0.41685,-2.04362 -0.92633,-2.3585 -0.56566,-0.3496 -0.56943,-1.81693 -0.01,-3.76869 1.35422,-4.72189 -0.19147,-5.37249 -5.44684,-2.29263 -6.99813,4.10117 -9.61716,7.75534 -9.61716,13.4182 0,5.32449 1.5764,7.35304 8.5,10.93803 4.90221,2.53833 6.84667,2.65206 8.62756,0.50466 z m -67.131062,-4.0951 c -0.002,-0.4125 -2.50814,-2.1 -5.56938,-3.75 -5.547469,-2.99007 -9.692059,-6.5 -7.675329,-6.5 0.58398,0 4.06829,1.34893 7.742919,2.99763 7.84215,3.51853 17.02917,6.3288 18.775122,5.74323 0.67659,-0.22692 -4.732332,-3.91884 -12.019832,-8.20426 -20.118949,-11.83096 -16.875609,-12.22512 6.5,-0.78992 6.737502,3.29594 12.250002,5.6358 12.250002,5.19969 0,-3.1118 -12.324082,-12.60061 -24.000002,-18.47856 -11.451829,-5.76515 -26.27986,-7.39531 -31.30603,-3.44172 -3.78374,2.97628 -4.15599,5.37954 -1.55116,10.01422 2.41713,4.3007 7.79111,8.34629 16.823461,12.66489 8.03867,3.84349 20.039659,6.56648 20.030229,4.5448 z m 38.003502,-2.71746 c 0,-0.67241 0.91704,-2.05248 2.03788,-3.06682 1.57346,-1.42396 1.88683,-2.5418 1.37506,-4.90499 -0.64525,-2.97957 -0.61102,-3.01432 1.29086,-1.31073 2.55955,2.2927 5.01106,2.22375 5.76835,-0.16224 0.59931,-1.88828 5.04704,-8.09557 8.00486,-11.17165 0.83764,-0.87114 1.52299,-2.17456 1.52299,-2.89649 0,-1.55665 -6.79603,-12.02129 -7.80345,-12.01588 -1.89106,0.0102 -7.44915,4.3497 -9.26929,7.23712 -1.67484,2.6569 -1.9716,4.41404 -1.60602,9.50914 0.48608,6.77438 -0.47604,8.11332 -2.22495,3.09639 -1.07199,-3.07512 -1.14894,-3.10872 -3.09221,-1.35009 -2.24966,2.03592 -3.9902,7.38969 -3.9985,12.29915 -0.007,4.28733 4.30724,9.01974 6.53649,7.16963 0.80186,-0.66548 1.45793,-1.76012 1.45793,-2.43254 z m 166.28078,1.02552 c 2.04302,-2.12184 3.72831,-5.76283 -7.07011,-3.65165 -0.23803,0.0465 -3.64395,1.31383 -3.71067,4.09359 -0.079,3.29337 2.95211,3.20971 3.53457,3.20971 0.58246,0 5.50324,-1.84144 7.24621,-3.65165 z m -113.79141,-3.87838 c 0.95983,-2.2972 2.65761,-3.89315 5.50974,-5.17928 2.26732,-1.02242 4.5449,-2.64837 5.06127,-3.61321 0.51637,-0.96485 2.17268,-1.89668 3.68069,-2.07073 4.91964,-0.56782 3.92704,-5.75986 -1.10905,-5.80115 -1.0274,-0.008 -3.5024,-1.37871 -5.5,-3.04508 -4.69549,-3.9169 -4.80719,-4.02724 -7.02443,-6.93874 l -1.87989,-2.46851 -5.39557,1.7008 c -9.36397,2.95174 -16.83213,10.15868 -16.83213,16.24341 0,4.65115 6.66136,10.34988 15.22358,13.02362 6.19633,1.93493 6.7342,1.81448 8.26579,-1.85113 z m 31.30385,-22.07391 c 0.30643,-8.08235 -1.10689,-24.25278 -2.21673,-25.36263 -1.02351,-1.0235 -13.66876,2.66525 -18.23946,5.32065 -8.0689,4.6877 -10.66415,12.88127 -5.58703,17.63907 4.10174,3.84376 21.43142,11.09704 24.75,10.35902 0.55,-0.12231 1.13195,-3.70256 1.29322,-7.95611 z m -82.95164,-2.93482 c 0.70302,-2.38097 2.15127,-5.07657 3.21832,-5.99021 2.21833,-1.8994 2.69446,-7.68074 0.63255,-7.68074 -1.32306,0 -3.34155,3.89679 -6.15146,11.87573 -1.87302,5.31853 -1.90713,6.12427 -0.25931,6.12427 0.70493,0 1.85688,-1.94807 2.5599,-4.32905 z m 30.85873,2.05504 c 0.43983,-0.7007 2.03719,-2.06107 3.54969,-3.02305 3.34117,-2.12504 3.65096,-5.95847 0.65131,-8.05951 -2.46051,-1.72341 -4.89471,-5.9446 -5.80619,-10.06867 -0.35559,-1.60888 -1.08496,-3.0696 -1.62082,-3.24604 -1.67421,-0.55125 -7.11814,3.33776 -10.04637,7.17688 -2.7235,3.57069 -2.76259,3.79491 -1.36583,7.83514 1.0722,3.10144 2.67471,4.98583 6.30091,7.40926 5.26557,3.51903 7.09638,3.95294 8.3373,1.97599 z m 20.94018,-11.47599 c 0.7817,-3.1678 7.28984,-9.89282 10.90332,-11.26667 3.39819,-1.29199 3.10747,-4.3483 -0.6808,-7.157266 -1.72535,-1.27933 -4.86249,-4.07451 -6.97143,-6.211499 l -3.83443,-3.88543 -5.27857,2.24364 c -10.09714,4.291769 -14.77858,9.613195 -14.77858,16.798925 0,3.6951 5.0275,8.53347 11,10.58619 6.82992,2.34742 8.845,2.11585 9.64049,-1.10789 z m -38.28279,-4.5 c 0.7615,-1.7875 2.56754,-4.34095 4.01342,-5.67432 3.18824,-2.94015 3.22737,-3.4772 0.45527,-6.2493 -1.35269,-1.352676 -1.58981,-1.949566 -0.62785,-1.580426 0.85017,0.32624 3.66476,0.910916 6.25464,1.299286 4.70014,0.70483 4.71803,0.69639 9.64044,-4.546616 l 4.93157,-5.252769 -3.7626,-4.27873 c -2.06942,-2.3533 -4.11831,-4.32112 -4.55308,-4.37293 -1.04861,-0.12495 -6.41371,3.63485 -10.45951,7.3299 -2.13708,1.95181 -3.25,3.896319 -3.25,5.678459 0,2.17242 -0.37785,2.6114 -1.90418,2.21226 -1.43853,-0.37619 -2.53896,0.58521 -4.5,3.931456 -2.95202,5.03725 -3.30517,9.29598 -1.03912,12.53122 2.11783,3.02363 3.17121,2.79819 4.801,-1.02749 z m 66.07213,-13.636466 c 1.58947,-2.57181 -4.69256,-25.921809 -7.42893,-27.612979 -1.41469,-0.87432 -7.02566,2.26461 -11.2065,6.26922 -6.22977,5.96719 -5.98644,11.69376 0.71404,16.804469 5.12718,3.91069 16.52557,6.797766 17.92139,4.53929 z M 158.69001,83.095125 c 0.75381,-1.80412 2.78485,-4.69451 4.51342,-6.42308 1.72857,-1.72857 3.14286,-3.45432 3.14286,-3.835 0,-0.94305 -9.66836,0.33327 -15.25031,2.01319 -6.76161,2.03495 -10.43071,4.19734 -11.03357,6.50265 -0.95378,3.64729 1.74096,5.02246 9.84189,5.02246 l 7.41515,0 z m 5.65628,-18.269439 c 0,-2.41728 -2.93953,-7.57886 -6.71401,-11.78927 -1.89281,-2.11141 -3.13074,-4.13641 -2.75096,-4.5 0.37977,-0.36359 4.38351,3.27643 8.89718,8.08893 4.51368,4.8125 8.71137,8.75 9.32822,8.75 2.85789,0 1.82046,-2.4356 -3.83757,-9.00956 -3.37005,-3.91559 -5.88226,-7.36437 -5.58269,-7.66394 0.91928,-0.91928 6.25987,3.41696 11.94296,9.69698 4.43038,4.89573 5.97885,5.97652 8.56265,5.97652 1.73482,0 3.15422,-0.32692 3.15422,-0.72648 0,-0.39957 -3.2625,-4.05039 -7.25,-8.11293 -4.04379,-4.1199 -6.14441,-6.83048 -4.75,-6.12928 3.03463,1.52601 13.76912,9.94033 16.40499,12.85918 1.79699,1.98992 6.50387,2.86731 7.8988,1.47239 1.16199,-1.16199 -3.51121,-6.51909 -9.7,-11.11955 -7.73883,-5.7527 -22.26015,-12.7152 -30.63746,-14.68969 -10.68248,-2.5178 -24.96633,-1.72698 -24.96633,1.38225 0,0.54196 3.2625,3.40011 7.25,6.35143 8.53764,6.3191 12.84441,10.98806 15.32788,16.617 1.49683,3.39262 2.28896,4.09568 4.61457,4.09568 1.86892,0 2.80755,-0.51809 2.80755,-1.54966 z"
     id="path2987"
     inkscape:connector-curvature="0"
     sodipodi:nodetypes="ssssssssssscsssssssssssssssssssssscssssscsssssssssssssssssssssssssssscssscsssscsssssscssssssssssssssssssssscssssssssscsssccsssssssssssssssssssssssssssssssssssssscsscscssssssssscsssssscsssssssssssssssssssssssssssscsscsssssssssssscscsssscccsssssscssscccssssssssssscssssssscsssscssssssssssscsscssssssssssssssssssssssssssssscsssssssssscssssssssssssssssssscssssssssssssssssssssss"
     inkscape:export-xdpi="50.182453"
     inkscape:export-ydpi="50.182453"
     inkscape:export-filename="/home/paolot/Downloads/SpriteKit/tryFish/img/FishyRed.png" />
</svg>
